<?xml version="1.0" standalone="no"?><!DOCTYPE svg PUBLIC "-//W3C//DTD SVG 1.1//EN" "http://www.w3.org/Graphics/SVG/1.1/DTD/svg11.dtd"><svg t="1773764542330" class="icon" viewBox="0 0 1024 1024" version="1.1" xmlns="http://www.w3.org/2000/svg" p-id="14373" width="256" height="256" xmlns:xlink="http://www.w3.org/1999/xlink"><path d="M973.732 649.04l-183.702 256.06c-28.892 40.666-84.952 60.244-157.83 54.25-94.008-7.762-218.632-57.44-338.08-143.124C174.666 730.498 87.56 628.38 49.61 541.92c-28.892-67.014-28.46-126.178 0.864-166.886l183.27-256.062c29.324-40.664 85.384-60.242 157.83-54.248 94.008 7.76 219.064 57.482 338.514 143.166 119.448 85.686 206.556 187.8 244.074 274.26 29.324 67.014 28.46 126.22-0.432 166.886zM282.906 154.16c18.974-26.304 56.922-33.12 103.926-29.238 85.814 7.072 198.796 53.818 307.896 132.042 109.1 78.182 189.74 170.336 224.24 249.25 18.54 43.252 24.58 81.372 5.604 107.678l24.58 17.55-24.58-17.55-183.702 256.062c-18.544 26.26-56.492 33.12-103.494 29.194-85.814-7.028-199.228-53.816-308.328-132-109.1-78.224-189.74-170.376-223.808-249.248-18.972-43.294-24.58-81.416-5.604-107.678l183.27-256.062z" fill="#FFFFFF" p-id="14374"></path><path d="M258.7 142.786c59.94-83.658 263.048-40.708 453.65 95.82 190.602 136.57 296.684 315.4 236.744 399.058l-183.272 256.06c-59.94 83.66-263.48 40.71-454.08-95.86C121.136 661.294 15.054 482.508 74.994 398.85L258.7 142.786z" fill="#FFFFFF" p-id="14375"></path><path d="M245.486 127.3c26.664-37.332 78.216-53.774 144.878-48.44 91.994 7.554 213.762 56.884 331.088 140.434 116.88 83.994 202.652 183.986 239.094 268.424 26.664 61.33 27.552 115.548 0.888 152.88l-183.098 255.98c-26.664 37.332-78.66 53.774-144.88 48.44-91.992-7.998-214.206-56.884-331.086-140.878C185.046 720.59 99.72 620.6 62.832 536.16c-26.664-61.33-27.554-115.548-0.888-152.88l183.54-255.98zM936.1 622.376v-0.444c21.332-29.332 16.888-72.884-4-121.77-35.108-80.44-117.324-175.1-229.316-255.092-111.548-79.996-227.54-127.548-315.088-134.658-53.33-4.444-95.55 5.332-116.88 35.108l-0.89 1.78c-20 29.774-15.554 71.994 5.334 119.99 35.108 80.882 117.324 175.542 228.872 255.538 111.548 79.994 227.54 127.546 315.088 134.656 52.44 4 93.772-5.332 115.548-33.33l1.332-2.222v0.444zM650.79 317.508c55.996 39.998 97.326 87.55 114.66 127.992 10.22 22.664 12.886 42.662 2.664 56.44-9.776 13.776-29.776 17.776-54.218 15.554-43.996-3.556-101.77-27.554-157.766-67.55-55.996-39.998-97.326-87.106-114.66-127.548-9.776-22.664-12.442-42.662-2.666-56.44 9.778-13.776 29.776-17.776 54.664-16 43.552 4 101.77 27.556 157.32 67.552z" fill="#0E0F23" p-id="14376"></path></svg>